<svg xmlns="http://www.w3.org/2000/svg" xmlns:xlink="http://www.w3.org/1999/xlink" version="1.1" x="0px" y="0px" viewBox="0 0 60 75" style="enable-background:new 0 0 60 60;" xml:space="preserve"><path d="M40.61,20.8l8.09-8.09c0.39-0.39,0.39-1.02,0-1.41s-1.02-0.39-1.41,0l-8.83,8.83C35.73,19.39,32.89,19,30,19  c-8.96,0-17.39,3.66-23.72,10.31c-0.37,0.39-0.37,0.99,0,1.38c3.74,3.93,8.22,6.81,13.11,8.51l-8.09,8.09  c-0.39,0.39-0.39,1.02,0,1.41C11.49,48.9,11.74,49,12,49s0.51-0.1,0.71-0.29l8.83-8.83C24.27,40.61,27.11,41,30,41  c8.96,0,17.39-3.66,23.72-10.31c0.37-0.39,0.37-0.99,0-1.38C49.98,25.38,45.5,22.5,40.61,20.8z M20.96,37.62  C16.31,36.17,12.02,33.58,8.4,30c5.87-5.81,13.5-9,21.6-9c2.32,0,4.6,0.27,6.81,0.78l-3.34,3.34C32.49,24.42,31.29,24,30,24  c-3.31,0-6,2.69-6,6c0,1.29,0.42,2.49,1.11,3.47L20.96,37.62z M33.43,27.98C33.78,28.58,34,29.26,34,30c0,2.21-1.79,4-4,4  c-0.74,0-1.42-0.22-2.02-0.57L33.43,27.98z M26.57,32.02C26.22,31.42,26,30.74,26,30c0-2.21,1.79-4,4-4c0.74,0,1.42,0.22,2.02,0.57  L26.57,32.02z M30,39c-2.32,0-4.6-0.27-6.81-0.78l3.34-3.34C27.51,35.58,28.71,36,30,36c3.31,0,6-2.69,6-6  c0-1.29-0.42-2.49-1.11-3.47l4.15-4.15c4.66,1.46,8.95,4.04,12.56,7.62C45.73,35.81,38.1,39,30,39z"/></svg>