<svg xmlns="http://www.w3.org/2000/svg" xmlns:xlink="http://www.w3.org/1999/xlink" version="1.1" x="0px" y="0px" viewBox="0 0 100 125" style="enable-background:new 0 0 100 100;" xml:space="preserve"><style type="text/css">
	.st0{fill-rule:evenodd;clip-rule:evenodd;}
</style><path class="st0" d="M50,24.947c9.841,0,18.656,2.745,25.853,6.583c9.591,5.115,16.365,12.263,18.899,17.483l-0.012,1.999  c-2.543,5.218-9.311,12.352-18.887,17.46c-16.451,8.774-35.255,8.774-51.705,0C14.556,63.357,7.782,56.209,5.248,50.989L5.26,48.99  c2.543-5.218,9.311-12.352,18.887-17.46C31.344,27.693,40.159,24.947,50,24.947L50,24.947z M50,34.913  c-8.333,0-15.089,6.756-15.089,15.089c0,13.399,16.276,20.152,25.758,10.669C70.152,51.189,63.399,34.913,50,34.913L50,34.913z   M57.449,42.553c-6.617-6.618-17.982-1.908-17.982,7.449c0,9.356,11.364,14.067,17.982,7.449  C61.562,53.337,61.562,46.666,57.449,42.553L57.449,42.553z M73.717,35.534c-15.073-8.039-32.362-8.039-47.435,0  C18.203,39.843,12.408,45.58,9.865,50.002c2.543,4.422,8.338,10.158,16.417,14.467c15.073,8.039,32.362,8.039,47.435,0  c8.079-4.309,13.874-10.045,16.417-14.467C87.592,45.58,81.797,39.843,73.717,35.534z"/></svg>