<svg width="250" height="48" viewBox="0 0 250 48" fill="none" xmlns="http://www.w3.org/2000/svg">
<path d="M26.813 32.6253L37.188 26.8254" stroke="#010101" stroke-width="2.94034" stroke-linecap="round"/>
<path d="M17.3748 26.9496L6.74976 20.8379" stroke="#010101" stroke-width="2.94034" stroke-linecap="round"/>
<path d="M22.7495 11.7066L27.062 9.27441" stroke="#010101" stroke-width="2.94034" stroke-linecap="round"/>
<path d="M31.8125 35.7432L37.1875 32.625" stroke="#010101" stroke-width="2.94034" stroke-linecap="round"/>
<path d="M20.5627 7.24322L22.0627 6.37012" stroke="#010101" stroke-width="2.94034" stroke-linecap="round"/>
<path d="M35.6248 21.6486L37.0623 20.8379" stroke="#010101" stroke-width="2.94034" stroke-linecap="round"/>
<path d="M8.37524 27.6357L6.75024 26.7002" stroke="#010101" stroke-width="2.94034" stroke-linecap="round"/>
<path d="M17.0001 38.4875L15.3751 37.552" stroke="#010101" stroke-width="2.94034" stroke-linecap="round"/>
<path d="M11.75 35.4313L6.75 32.5625" stroke="#010101" stroke-width="2.94034" stroke-linecap="round"/>
<path d="M17 14.9489L18.8125 13.8887" stroke="#010101" stroke-width="2.94034" stroke-linecap="round"/>
<path d="M26.7502 38.675L28.1252 37.8643" stroke="#010101" stroke-width="2.94034" stroke-linecap="round"/>
<path d="M11.9377 12.1696L16.7502 9.42554" stroke="#010101" stroke-width="2.94034" stroke-linecap="round"/>
<path d="M26.7502 26.888L31.7502 23.8945" stroke="#010101" stroke-width="2.94034" stroke-linecap="round"/>
<path d="M6.74976 15.2249L21.9998 23.8312M21.9998 23.8312V41.418M21.9998 23.8312L37.1873 14.9131" stroke="#010101" stroke-width="2.94034" stroke-linecap="round"/>
<path d="M17.3125 32.6248L12.375 29.8184" stroke="#010101" stroke-width="2.94034" stroke-linecap="round"/>
<path d="M22.2861 17.8002L32.3486 12.125" stroke="#010101" stroke-width="2.94034" stroke-linecap="round"/>
<path d="M62.9208 31.9568C66.4492 31.9568 68.0958 30.2632 68.0958 27.5816C68.0958 25.4645 66.6844 24.0061 63.7676 23.7944V23.5827C66.4021 23.3945 67.4371 21.9831 67.4371 20.0308C67.4371 17.5609 65.6965 16.1966 62.4739 16.1966H53.0177V31.9568H62.9208ZM56.5461 19.3721H62.0269C63.3442 19.3721 63.9087 19.8426 63.9087 20.9246C63.9087 22.0067 63.3677 22.4536 62.074 22.4536H56.5461V19.3721ZM56.5461 25.3704H62.4974C63.9323 25.3704 64.5203 25.8174 64.5203 27.0641C64.5203 28.3343 63.9323 28.7812 62.4974 28.7812H56.5461V25.3704ZM83.2529 31.9568V28.7812H73.8673V16.1966H70.3389V31.9568H83.2529ZM93.7293 32.192C99.069 32.192 102.292 28.9929 102.292 24.0767C102.292 19.1604 99.069 15.9613 93.7293 15.9613C88.5073 15.9613 85.2611 19.1604 85.2611 24.0767C85.2611 28.9929 88.5073 32.192 93.7293 32.192ZM93.7293 28.8047C90.2715 28.8047 89.0012 27.5816 89.0012 24.0767C89.0012 20.5718 90.2715 19.3486 93.7293 19.3486C97.1872 19.3486 98.528 20.5718 98.528 24.0767C98.528 27.5816 97.1872 28.8047 93.7293 28.8047ZM112.84 32.192C117.756 32.192 120.884 29.7456 120.884 25.7468V25.3939H116.956V25.7468C116.956 27.8168 115.78 28.8047 112.91 28.8047C109.452 28.8047 108.158 27.5816 108.158 24.0767C108.158 20.5718 109.452 19.3486 112.91 19.3486C115.78 19.3486 116.956 20.3366 116.956 22.4066V22.7594H120.884V22.4066C120.884 18.4077 117.732 15.9613 112.84 15.9613C107.641 15.9613 104.418 19.1604 104.418 24.0767C104.418 28.9929 107.641 32.192 112.84 32.192ZM126.883 31.9568V25.8879H130.858L134.927 31.9568H139.161L133.751 23.9591L139.232 16.1966H134.998L130.811 22.4536H126.883V16.1966H123.354V31.9568H126.883ZM149.838 31.9568V19.3721H155.695V16.1966H140.453V19.3721H146.31V31.9568H149.838ZM161.43 31.9568V25.6292H169.663V31.9568H173.191V16.1966H169.663V22.4536H161.43V16.1966H157.901V31.9568H161.43ZM189.362 31.9568V28.7812H179.553V25.6056H189.009V22.4536H179.553V19.3721H189.362V16.1966H176.025V31.9568H189.362ZM200.013 32.192C205.352 32.192 208.575 28.9929 208.575 24.0767C208.575 19.1604 205.352 15.9613 200.013 15.9613C194.791 15.9613 191.544 19.1604 191.544 24.0767C191.544 28.9929 194.791 32.192 200.013 32.192ZM200.013 28.8047C196.555 28.8047 195.284 27.5816 195.284 24.0767C195.284 20.5718 196.555 19.3486 200.013 19.3486C203.47 19.3486 204.811 20.5718 204.811 24.0767C204.811 27.5816 203.47 28.8047 200.013 28.8047ZM214.583 31.9568V26.2408H216.912C218.746 26.2408 219.334 26.6406 219.97 27.8638L222.134 31.9568H226.227L223.945 27.7227C223.357 26.6171 222.816 25.8644 221.404 25.488V25.2999C224.368 25.0176 225.85 23.4886 225.85 20.9246C225.85 17.9137 223.639 16.1966 219.758 16.1966H211.054V31.9568H214.583ZM214.583 19.3721H219.734C221.404 19.3721 222.157 19.9131 222.157 21.4656C222.157 23.1122 221.404 23.5827 219.734 23.5827H214.583V19.3721ZM237.621 31.9568V26.7583L244.725 16.1966H240.349L237.338 20.807L236.021 22.9241H235.762L234.445 20.807L231.434 16.1966H227.082L234.069 26.7347V31.9568H237.621Z" fill="#010101"/>
</svg>
