<svg width="17" height="17" viewBox="0 0 17 17" fill="none" xmlns="http://www.w3.org/2000/svg">
<path fill-rule="evenodd" clip-rule="evenodd" d="M0.875 8.6875C0.875 4.37318 4.37318 0.875 8.6875 0.875C13.0018 0.875 16.5 4.37318 16.5 8.6875C16.5 13.0018 13.0018 16.5 8.6875 16.5C4.37318 16.5 0.875 13.0018 0.875 8.6875ZM8.6875 2.125C5.06354 2.125 2.125 5.06354 2.125 8.6875C2.125 12.3115 5.06354 15.25 8.6875 15.25C12.3115 15.25 15.25 12.3115 15.25 8.6875C15.25 5.06354 12.3115 2.125 8.6875 2.125ZM6.96875 7.59375C6.96875 7.24857 7.24857 6.96875 7.59375 6.96875H8.84375C9.18893 6.96875 9.46875 7.24857 9.46875 7.59375V11.6562H10.5625C10.9077 11.6562 11.1875 11.9361 11.1875 12.2812C11.1875 12.6264 10.9077 12.9062 10.5625 12.9062H7.125C6.77982 12.9062 6.5 12.6264 6.5 12.2812C6.5 11.9361 6.77982 11.6562 7.125 11.6562H8.21875V8.21875H7.59375C7.24857 8.21875 6.96875 7.93893 6.96875 7.59375Z" fill="#626F81"/>
<path d="M8.6875 4.07812C8.48663 4.07812 8.29027 4.13769 8.12325 4.24929C7.95623 4.36089 7.82606 4.51951 7.74918 4.70509C7.67231 4.89067 7.6522 5.09488 7.69139 5.29189C7.73058 5.4889 7.82731 5.66987 7.96934 5.81191C8.11138 5.95394 8.29235 6.05067 8.48936 6.08986C8.68637 6.12905 8.89058 6.10894 9.07616 6.03207C9.26174 5.95519 9.42036 5.82502 9.53196 5.658C9.64356 5.49098 9.70312 5.29462 9.70312 5.09375C9.70312 4.82439 9.59612 4.56606 9.40565 4.37559C9.21519 4.18513 8.95686 4.07812 8.6875 4.07812Z" fill="#626F81"/>
</svg>
